# Blender v2.79 (sub 0) OBJ File: 'interior_1.blend'
# www.blender.org
mtllib interior_1.mtl
o Cube_Cube.001
v 8.173204 8.173204 -0.173205
v 8.212125 8.212125 6.000000
v 8.173204 -8.173204 -0.173205
v 8.212125 -8.212125 6.000000
v -8.173204 8.173204 -0.173205
v -8.212125 8.212125 6.000000
v -8.173204 -8.173204 -0.173205
v -8.212125 -8.212125 6.000000
v 8.000000 8.000000 0.000000
v 8.000000 8.000000 6.000000
v 8.000000 -8.000000 0.000000
v 8.000000 -8.000000 6.000000
v -8.000000 8.000000 0.000000
v -8.000000 8.000000 6.000000
v -8.000000 -8.000000 0.000000
v -8.000000 -8.000000 6.000000
vt 0.472892 0.038059
vt 0.472892 0.461808
vt 0.049142 0.461808
vt 0.049142 0.038059
vt 0.947475 0.034977
vt 0.519732 0.034977
vt 0.519732 0.462720
vt 0.947475 0.462720
vt 0.989207 0.989205
vt 0.010649 0.989205
vt 0.027410 0.972403
vt 0.972407 0.972447
vt 0.989351 0.010648
vt 0.972590 0.027450
vt 0.010793 0.010648
vt 0.027593 0.027406
vt 0.813665 0.729334
vt 0.813665 0.960914
vt 0.196209 0.960914
vt 0.196209 0.729334
vt 0.813666 0.495317
vt 0.813666 0.726765
vt 0.196228 0.726765
vt 0.196224 0.495317
vt 0.813962 0.256141
vt 0.813962 0.487886
vt 0.196475 0.487886
vt 0.196475 0.256141
vt 0.813813 0.020928
vt 0.813813 0.252539
vt 0.196509 0.252539
vt 0.196509 0.020928
vt 0.813656 0.729345
vt 0.196205 0.729345
vt 0.196205 0.960889
vt 0.813656 0.960889
vt 0.813671 0.495303
vt 0.196220 0.495303
vt 0.196220 0.726848
vt 0.813671 0.726847
vt 0.813969 0.256155
vt 0.196517 0.256155
vt 0.196517 0.487699
vt 0.813969 0.487699
vt 0.813957 0.020998
vt 0.196505 0.020998
vt 0.196505 0.252542
vt 0.813957 0.252542
vn 0.0000 0.0000 -1.0000
vn 0.0000 0.0000 1.0000
vn 1.0000 0.0000 -0.0063
vn 0.0000 -1.0000 -0.0063
vn -1.0000 0.0000 -0.0063
vn 0.0000 1.0000 -0.0063
vn -1.0000 0.0000 0.0000
vn 0.0000 1.0000 0.0000
vn 1.0000 0.0000 0.0000
vn 0.0000 -1.0000 0.0000
usemtl Material.001
s off
f 3/1/1 7/2/1 5/3/1 1/4/1
f 11/5/2 9/6/2 13/7/2 15/8/2
f 4/9/2 2/10/2 10/11/2 12/12/2
f 8/13/2 4/9/2 12/12/2 16/14/2
f 6/15/2 8/13/2 16/14/2 14/16/2
f 2/10/2 6/15/2 14/16/2 10/11/2
usemtl walls
f 1/17/3 2/18/3 4/19/3 3/20/3
f 3/21/4 4/22/4 8/23/4 7/24/4
f 7/25/5 8/26/5 6/27/5 5/28/5
f 5/29/6 6/30/6 2/31/6 1/32/6
f 9/33/7 11/34/7 12/35/7 10/36/7
f 11/37/8 15/38/8 16/39/8 12/40/8
f 15/41/9 13/42/9 14/43/9 16/44/9
f 13/45/10 9/46/10 10/47/10 14/48/10
