# Blender v2.79 (sub 0) OBJ File: 'furnitures.blend'
# www.blender.org
mtllib mirror.mtl
o Cube.002
v -1.498361 6.418420 0.720048
v -1.498361 -0.049950 -0.361294
v -1.498361 6.483834 0.328755
v -1.498361 0.015464 -0.752587
v -1.101638 6.418420 0.720048
v -1.101638 -0.049950 -0.361294
v -1.101638 6.483834 0.328755
v -1.101638 0.015464 -0.752587
v -1.101638 0.232092 -0.314144
v -1.101638 0.297505 -0.705437
v 1.496957 6.483833 0.328755
v 1.496957 0.015464 -0.752587
v 1.496957 6.418419 0.720048
v 1.496957 -0.049950 -0.361294
v 1.100234 6.483833 0.328755
v 1.100234 0.015464 -0.752587
v 1.100234 6.418419 0.720048
v 1.100234 -0.049950 -0.361294
v 1.100234 0.297506 -0.705437
v 1.100234 0.232092 -0.314144
v -0.000702 -0.049950 -0.361294
v -0.000702 0.015464 -0.752587
v -0.000702 0.232092 -0.314144
v -0.000702 0.297505 -0.705437
v -0.000702 0.015464 -0.752587
v -0.000702 -0.049950 -0.361294
v -0.000702 0.297506 -0.705437
v -0.000702 0.232092 -0.314144
v -1.139815 3.735011 0.150151
v 1.139815 3.735010 0.150151
v -1.139815 3.736896 0.132898
v 1.139815 3.736896 0.132898
v -1.139815 3.735380 0.115609
v 1.139815 3.735380 0.115609
v -1.139815 3.730520 0.098948
v 1.139815 3.730520 0.098948
v -1.139815 3.722502 0.083555
v 1.139815 3.722502 0.083555
v -1.139815 3.711637 0.070022
v 1.139815 3.711637 0.070022
v -1.139815 3.698339 0.058869
v 1.139815 3.698339 0.058868
v -1.139815 3.683121 0.050524
v 1.139815 3.683121 0.050524
v -1.139815 3.666567 0.045309
v 1.139815 3.666567 0.045309
v -1.139815 3.649314 0.043423
v 1.139815 3.649315 0.043423
v -1.139815 3.632025 0.044939
v 1.139815 3.632025 0.044939
v -1.139815 3.615364 0.049799
v 1.139815 3.615364 0.049799
v -1.139815 3.599971 0.057817
v 1.139815 3.599971 0.057817
v -1.139815 3.586438 0.068683
v 1.139815 3.586438 0.068683
v -1.139815 3.575285 0.081981
v 1.139815 3.575285 0.081980
v -1.139815 3.566940 0.097199
v 1.139815 3.566940 0.097198
v -1.139815 3.561725 0.113752
v 1.139815 3.561725 0.113752
v -1.139815 3.559839 0.131005
v 1.139815 3.559839 0.131005
v -1.139815 3.561355 0.148294
v 1.139815 3.561355 0.148294
v -1.139815 3.566216 0.164955
v 1.139815 3.566216 0.164955
v -1.139815 3.574233 0.180348
v 1.139815 3.574233 0.180348
v -1.139815 3.585099 0.193881
v 1.139815 3.585099 0.193881
v -1.139815 3.598397 0.205034
v 1.139815 3.598397 0.205034
v -1.139815 3.613615 0.213379
v 1.139815 3.613615 0.213379
v -1.139815 3.630168 0.218594
v 1.139815 3.630168 0.218594
v -1.139815 3.647421 0.220480
v 1.139815 3.647421 0.220480
v -1.139815 3.664710 0.218964
v 1.139815 3.664710 0.218964
v -1.139815 3.681372 0.214103
v 1.139815 3.681372 0.214103
v -1.139815 3.696765 0.206086
v 1.139815 3.696765 0.206086
v -1.139815 3.710298 0.195220
v 1.139815 3.710297 0.195220
v -1.139815 3.721451 0.181922
v 1.139815 3.721451 0.181922
v -1.139815 3.729795 0.166704
v 1.139815 3.729795 0.166704
v 0.740398 -0.010134 1.213105
v 0.740398 3.665791 0.213310
v 0.740398 -0.052367 1.053685
v 0.740398 3.623557 0.053891
v 0.905317 -0.010134 1.213105
v 0.905317 3.665791 0.213310
v 0.905317 -0.052367 1.053685
v 0.905317 3.623557 0.053891
v -0.905316 -0.010134 1.213105
v -0.905316 3.665790 0.213310
v -0.905316 -0.052367 1.053685
v -0.905316 3.623557 0.053891
v -0.740397 -0.010134 1.213105
v -0.740397 3.665790 0.213310
v -0.740397 -0.052367 1.053685
v -0.740397 3.623557 0.053891
v -1.154278 6.529287 0.528511
v 1.154278 6.529287 0.528511
v -1.154278 0.190947 -0.531094
v 1.154278 0.190947 -0.531094
v -1.483427 6.417382 0.719483
v -1.483427 6.807973 0.784779
v -1.483427 6.482678 0.328892
v -1.483427 6.873270 0.394189
v 1.483427 6.417382 0.719483
v 1.483427 6.807973 0.784779
v 1.483427 6.482678 0.328892
v 1.483427 6.873270 0.394189
v -1.483427 6.840621 0.589484
v 0.000000 7.549829 0.507292
v 1.483427 6.840621 0.589484
v 0.000000 7.484533 0.897882
v 0.000000 7.517181 0.702587
v -1.483427 6.856945 0.491837
v 0.741714 7.314846 0.468009
v 1.483427 6.824297 0.687132
v -0.741714 7.249549 0.858599
v -1.483427 6.824297 0.687132
v -0.741714 7.314846 0.468009
v 1.483427 6.856945 0.491837
v 0.741714 7.249549 0.858599
v 0.000000 7.500857 0.800235
v 0.000000 7.533505 0.604940
v 0.741714 7.282197 0.663304
v -0.741714 7.282197 0.663304
v -0.741714 7.298521 0.565657
v 0.741714 7.298521 0.565657
v 0.741714 7.265873 0.760952
v -0.741714 7.265873 0.760952
v -1.154278 6.544184 0.439397
v 1.154278 6.544184 0.439397
v -1.154278 0.205844 -0.620207
v 1.154278 0.205844 -0.620207
vt 0.000000 0.000000
vt 0.000000 0.000000
vt 0.000000 0.000000
vt 0.000000 0.000000
vt 0.551256 0.014128
vt 0.551256 0.777927
vt 0.605170 0.777927
vt 0.605170 0.014128
vt 0.612951 0.786340
vt 0.662536 0.786340
vt 0.662536 0.048371
vt 0.662536 0.006391
vt 0.612951 0.006391
vt 0.551256 0.014128
vt 0.551256 0.777927
vt 0.605170 0.777927
vt 0.605170 0.014128
vt 0.662536 0.786340
vt 0.612951 0.786340
vt 0.612951 0.006391
vt 0.662536 0.006391
vt 0.662536 0.048371
vt 0.551256 0.014128
vt 0.551256 0.777927
vt 0.605170 0.777927
vt 0.605170 0.014128
vt 0.551256 0.014128
vt 0.551256 0.777927
vt 0.605170 0.777927
vt 0.605170 0.014128
vt 0.551256 0.014128
vt 0.551256 0.777927
vt 0.605170 0.777927
vt 0.605170 0.014128
vt 0.987325 0.786340
vt 0.937740 0.786340
vt 0.937740 0.048371
vt 0.937740 0.006391
vt 0.987325 0.006391
vt 0.551256 0.014128
vt 0.551256 0.777927
vt 0.605170 0.777927
vt 0.605170 0.014128
vt 0.937740 0.786340
vt 0.987325 0.786340
vt 0.987325 0.006391
vt 0.937740 0.006391
vt 0.937740 0.048371
vt 0.551256 0.014128
vt 0.551256 0.777927
vt 0.605170 0.777927
vt 0.605170 0.014128
vt 0.551256 0.014128
vt 0.551256 0.777927
vt 0.605170 0.777927
vt 0.605170 0.014128
vt 0.800138 0.006391
vt 0.800138 0.048371
vt 0.676785 0.085001
vt 0.797947 0.085001
vt 0.797947 0.123607
vt 0.676785 0.123607
vt 0.551256 0.777927
vt 0.605170 0.777927
vt 0.605170 0.014128
vt 0.800138 0.006391
vt 0.800138 0.048371
vt 0.551256 0.777927
vt 0.605170 0.777927
vt 0.605170 0.014128
vt 0.800138 0.048371
vt 0.800138 0.006391
vt 0.800138 0.048371
vt 0.800138 0.006391
vt 0.919109 0.123607
vt 0.797947 0.123607
vt 0.797947 0.085001
vt 0.919109 0.085001
vt 0.257631 0.754151
vt 0.486390 0.754151
vt 0.486390 0.982909
vt 0.257631 0.982909
vt 0.257631 0.754151
vt 0.486390 0.754151
vt 0.486390 0.982909
vt 0.257631 0.982909
vt 0.257631 0.754151
vt 0.486390 0.754151
vt 0.486390 0.982909
vt 0.257631 0.982909
vt 0.257631 0.754151
vt 0.486390 0.754151
vt 0.486390 0.982909
vt 0.257631 0.982909
vt 0.486390 0.754151
vt 0.486390 0.982909
vt 0.257631 0.754151
vt 0.257631 0.982909
vt 0.257631 0.754151
vt 0.486390 0.754151
vt 0.486390 0.982909
vt 0.257631 0.982909
vt 0.257631 0.754151
vt 0.486390 0.754151
vt 0.486390 0.982909
vt 0.257631 0.982909
vt 0.257631 0.754151
vt 0.486390 0.754151
vt 0.486390 0.982909
vt 0.257631 0.982909
vt 0.257631 0.754151
vt 0.486390 0.754151
vt 0.486390 0.982909
vt 0.257631 0.982909
vt 0.486390 0.754151
vt 0.486390 0.982909
vt 0.257631 0.754151
vt 0.257631 0.982909
vt 0.321181 0.033259
vt 0.077257 0.033259
vt 0.077257 0.677159
vt 0.321181 0.677158
vt 0.542883 0.797712
vt 0.542854 0.869631
vt 0.560833 0.869639
vt 0.578813 0.869646
vt 0.596793 0.869653
vt 0.614773 0.869661
vt 0.614802 0.797742
vt 0.632047 0.866264
vt 0.632047 0.910621
vt 0.715512 0.960768
vt 0.798976 0.987454
vt 0.882441 0.960768
vt 0.965905 0.910621
vt 0.965905 0.866264
vt 0.614802 0.797742
vt 0.614773 0.869661
vt 0.596793 0.869653
vt 0.578813 0.869646
vt 0.560833 0.869639
vt 0.542854 0.869631
vt 0.542883 0.797712
vt 0.965905 0.866264
vt 0.965905 0.910621
vt 0.882441 0.960768
vt 0.798976 0.987454
vt 0.715512 0.960768
vt 0.632047 0.910621
vt 0.632047 0.866264
vt 0.630909 0.809138
vt 0.969017 0.809138
vt 0.969017 0.851245
vt 0.630909 0.851245
vt 0.560800 0.950946
vt 0.542821 0.950938
vt 0.560800 0.950946
vt 0.560783 0.994213
vt 0.542803 0.994206
vt 0.542821 0.950938
vt 0.596760 0.950960
vt 0.596742 0.994228
vt 0.578762 0.994220
vt 0.578780 0.950953
vt 0.596760 0.950960
vt 0.578780 0.950953
vt 0.614722 0.994235
vt 0.614740 0.950968
vt 0.614740 0.950968
vt 0.018192 0.752985
vt 0.250116 0.752985
vt 0.250116 0.984909
vt 0.018192 0.984909
vt 0.018192 0.752985
vt 0.250116 0.752985
vt 0.250116 0.984909
vt 0.018192 0.984909
vt 0.018192 0.752985
vt 0.250116 0.752985
vt 0.250116 0.984909
vt 0.018192 0.984909
vt 0.018192 0.752985
vt 0.250116 0.752985
vt 0.250116 0.984909
vt 0.018192 0.984909
vt 0.018192 0.752985
vt 0.250116 0.752985
vt 0.250116 0.984909
vt 0.018192 0.984909
vt 0.018192 0.752985
vt 0.250116 0.752985
vt 0.250116 0.984909
vt 0.018192 0.984909
vt 0.018192 0.752985
vt 0.250116 0.752985
vt 0.250116 0.984909
vt 0.018192 0.984909
vt 0.018192 0.752985
vt 0.250116 0.752985
vt 0.250116 0.984909
vt 0.018192 0.984909
vt 0.018192 0.752985
vt 0.250116 0.752985
vt 0.250116 0.984909
vt 0.018192 0.984909
vt 0.018192 0.752985
vt 0.250116 0.752985
vt 0.250116 0.984909
vt 0.018192 0.984909
vt 0.018192 0.752985
vt 0.250116 0.752985
vt 0.250116 0.984909
vt 0.018192 0.984909
vt 0.018192 0.752985
vt 0.250116 0.752985
vt 0.250116 0.984909
vt 0.018192 0.984909
vt 0.018192 0.752985
vt 0.250116 0.752985
vt 0.250116 0.984909
vt 0.018192 0.984909
vt 0.018192 0.752985
vt 0.250116 0.752985
vt 0.250116 0.984909
vt 0.018192 0.984909
vt 0.018192 0.752985
vt 0.250116 0.752985
vt 0.250116 0.984909
vt 0.018192 0.984909
vt 0.018192 0.752985
vt 0.250116 0.752985
vt 0.250116 0.984909
vt 0.018192 0.984909
vt 0.018192 0.752985
vt 0.250116 0.752985
vt 0.250116 0.984909
vt 0.018192 0.984909
vt 0.018192 0.752985
vt 0.250116 0.752985
vt 0.250116 0.984909
vt 0.018192 0.984909
vt 0.018192 0.752985
vt 0.250116 0.752985
vt 0.250116 0.984909
vt 0.018192 0.984909
vt 0.018192 0.752985
vt 0.250116 0.752985
vt 0.250116 0.984909
vt 0.018192 0.984909
vt 0.018192 0.752985
vt 0.250116 0.752985
vt 0.250116 0.984909
vt 0.018192 0.984909
vt 0.018192 0.752985
vt 0.250116 0.752985
vt 0.250116 0.984909
vt 0.018192 0.984909
vt 0.018192 0.752985
vt 0.250116 0.752985
vt 0.250116 0.984909
vt 0.018192 0.984909
vt 0.018192 0.752985
vt 0.250116 0.752985
vt 0.250116 0.984909
vt 0.018192 0.984909
vt 0.018192 0.752985
vt 0.250116 0.752985
vt 0.250116 0.984909
vt 0.018192 0.984909
vt 0.018192 0.752985
vt 0.250116 0.752985
vt 0.250116 0.984909
vt 0.018192 0.984909
vt 0.018192 0.752985
vt 0.250116 0.752985
vt 0.250116 0.984909
vt 0.018192 0.984909
vt 0.018192 0.752985
vt 0.250116 0.752985
vt 0.250116 0.984909
vt 0.018192 0.984909
vt 0.018192 0.752985
vt 0.250116 0.752985
vt 0.250116 0.984909
vt 0.018192 0.984909
vt 0.018192 0.752985
vt 0.250116 0.752985
vt 0.250116 0.984909
vt 0.018192 0.984909
vt 0.134154 0.982426
vt 0.156292 0.980245
vt 0.177580 0.973788
vt 0.197199 0.963301
vt 0.214396 0.949189
vt 0.228508 0.931992
vt 0.238995 0.912373
vt 0.245452 0.891085
vt 0.247633 0.868947
vt 0.245452 0.846808
vt 0.238995 0.825520
vt 0.228508 0.805901
vt 0.214396 0.788705
vt 0.197199 0.774592
vt 0.177580 0.764106
vt 0.156292 0.757648
vt 0.134154 0.755468
vt 0.112015 0.757648
vt 0.090727 0.764106
vt 0.071108 0.774592
vt 0.053912 0.788705
vt 0.039799 0.805901
vt 0.029313 0.825520
vt 0.022855 0.846808
vt 0.020675 0.868947
vt 0.022855 0.891086
vt 0.029313 0.912373
vt 0.039799 0.931992
vt 0.053912 0.949189
vt 0.071108 0.963301
vt 0.090727 0.973788
vt 0.112015 0.980245
vt 0.018192 0.752985
vt 0.250116 0.752985
vt 0.250116 0.984909
vt 0.018192 0.984909
vt 0.018192 0.752985
vt 0.250116 0.752985
vt 0.250116 0.984909
vt 0.018192 0.984909
vt 0.134154 0.982426
vt 0.156292 0.980245
vt 0.177580 0.973788
vt 0.197199 0.963301
vt 0.214396 0.949189
vt 0.228508 0.931992
vt 0.238995 0.912373
vt 0.245452 0.891085
vt 0.247633 0.868947
vt 0.245452 0.846808
vt 0.238995 0.825520
vt 0.228508 0.805901
vt 0.214396 0.788705
vt 0.197199 0.774592
vt 0.177580 0.764106
vt 0.156292 0.757648
vt 0.134154 0.755468
vt 0.112015 0.757648
vt 0.090727 0.764106
vt 0.071108 0.774592
vt 0.053912 0.788705
vt 0.039799 0.805901
vt 0.029313 0.825520
vt 0.022855 0.846808
vt 0.020675 0.868947
vt 0.022855 0.891086
vt 0.029313 0.912373
vt 0.039799 0.931992
vt 0.053912 0.949189
vt 0.071108 0.963301
vt 0.090727 0.973788
vt 0.112015 0.980245
vn 0.0000 -0.1649 0.9863
vn -1.0000 0.0000 0.0000
vn 0.0000 0.1649 -0.9863
vn 1.0000 0.0000 0.0000
vn 0.0000 0.9863 0.1649
vn 0.0000 -0.9863 -0.1649
vn 0.0000 -0.2625 -0.9649
vn 0.0000 0.2625 0.9649
vn 0.0000 -0.9667 0.2561
vn -0.0000 0.9667 -0.2561
vn -0.5168 0.8444 0.1412
vn 0.3058 0.9391 0.1570
vn -0.3058 0.9391 0.1570
vn 0.5168 0.8444 0.1412
vn -0.6857 0.7123 0.1496
vn 0.6857 0.7123 0.1496
vn 0.6857 0.7278 0.0078
vn -0.6857 0.7278 0.0078
vn 0.6857 0.7154 -0.1343
vn -0.6857 0.7154 -0.1343
vn 0.6857 0.6754 -0.2713
vn -0.6857 0.6754 -0.2713
vn 0.6857 0.6095 -0.3979
vn -0.6857 0.6095 -0.3979
vn 0.6857 0.5202 -0.5091
vn -0.6857 0.5202 -0.5091
vn 0.6857 0.4108 -0.6008
vn -0.6857 0.4108 -0.6008
vn 0.6857 0.2857 -0.6695
vn -0.6857 0.2857 -0.6695
vn 0.6857 0.1496 -0.7123
vn -0.6857 0.1496 -0.7123
vn 0.6857 0.0078 -0.7278
vn -0.6857 0.0078 -0.7278
vn 0.6857 -0.1343 -0.7154
vn -0.6857 -0.1343 -0.7154
vn 0.6857 -0.2713 -0.6754
vn -0.6857 -0.2713 -0.6754
vn 0.6857 -0.3979 -0.6095
vn -0.6857 -0.3979 -0.6095
vn 0.6857 -0.5091 -0.5202
vn -0.6857 -0.5091 -0.5202
vn 0.6857 -0.6008 -0.4108
vn -0.6857 -0.6008 -0.4108
vn 0.6857 -0.6695 -0.2857
vn -0.6857 -0.6695 -0.2857
vn 0.6857 -0.7123 -0.1496
vn -0.6857 -0.7123 -0.1496
vn 0.6857 -0.7278 -0.0078
vn -0.6857 -0.7278 -0.0078
vn 0.6857 -0.7154 0.1343
vn -0.6857 -0.7154 0.1343
vn 0.6857 -0.6754 0.2713
vn -0.6857 -0.6754 0.2713
vn 0.6857 -0.6095 0.3979
vn -0.6857 -0.6095 0.3979
vn 0.6857 -0.5202 0.5091
vn -0.6857 -0.5202 0.5091
vn 0.6857 -0.4108 0.6008
vn -0.6857 -0.4108 0.6008
vn 0.6857 -0.2857 0.6695
vn -0.6857 -0.2857 0.6695
vn 0.6857 -0.1496 0.7123
vn -0.6857 -0.1496 0.7123
vn 0.6857 -0.0078 0.7278
vn -0.6857 -0.0078 0.7278
vn 0.6857 0.1343 0.7154
vn -0.6857 0.1343 0.7154
vn 0.6857 0.2713 0.6754
vn -0.6857 0.2713 0.6754
vn 0.6857 0.3979 0.6095
vn -0.6857 0.3979 0.6095
vn 0.6857 0.5091 0.5202
vn -0.6857 0.5091 0.5202
vn 0.6857 0.6008 0.4108
vn -0.6857 0.6008 0.4108
vn 0.6857 0.6695 0.2857
vn -0.6857 0.6695 0.2857
usemtl mirror
s off
f 142/1/1 144/2/1 145/3/1 143/4/1
usemtl mirror_body
f 1/5/2 3/6/2 4/7/2 2/8/2
f 3/9/3 7/10/3 10/11/3 8/12/3 4/13/3
f 7/14/4 5/15/4 9/16/4 10/17/4
f 5/18/1 1/19/1 2/20/1 6/21/1 9/22/1
f 3/23/5 1/24/5 5/25/5 7/26/5
f 8/27/6 6/28/6 2/29/6 4/30/6
f 11/31/4 13/32/4 14/33/4 12/34/4
f 13/35/1 17/36/1 20/37/1 18/38/1 14/39/1
f 17/40/2 15/41/2 19/42/2 20/43/2
f 15/44/3 11/45/3 12/46/3 16/47/3 19/48/3
f 13/49/5 11/50/5 15/51/5 17/52/5
f 18/53/6 16/54/6 12/55/6 14/56/6
f 16/47/3 25/57/3 27/58/3 19/48/3
f 9/59/5 23/60/5 24/61/5 10/62/5
f 18/53/6 26/63/6 25/64/6 16/65/6
f 6/21/1 21/66/1 23/67/1 9/22/1
f 8/27/6 22/68/6 21/69/6 6/70/6
f 20/37/1 28/71/1 26/72/1 18/38/1
f 10/11/3 24/73/3 22/74/3 8/12/3
f 19/75/5 27/76/5 28/77/5 20/78/5
f 21/66/4 22/74/4 24/73/4 23/67/4
f 25/57/2 26/72/2 28/71/2 27/58/2
f 93/79/2 94/80/2 96/81/2 95/82/2
f 95/83/7 96/84/7 100/85/7 99/86/7
f 99/87/4 100/88/4 98/89/4 97/90/4
f 97/91/8 98/92/8 94/93/8 93/94/8
f 95/83/9 99/95/9 97/96/9 93/94/9
f 100/97/10 96/84/10 94/93/10 98/98/10
f 101/99/2 102/100/2 104/101/2 103/102/2
f 103/103/7 104/104/7 108/105/7 107/106/7
f 107/107/4 108/108/4 106/109/4 105/110/4
f 105/111/8 106/112/8 102/113/8 101/114/8
f 103/103/9 107/115/9 105/116/9 101/114/9
f 108/117/10 104/104/10 102/113/10 106/118/10
f 109/119/3 110/120/3 112/121/3 111/122/3
f 113/123/2 114/124/2 130/125/2 121/126/2 126/127/2 116/128/2 115/129/2
f 115/130/3 116/131/3 131/132/3 122/133/3 127/134/3 120/135/3 119/136/3
f 119/137/4 120/138/4 132/139/4 123/140/4 128/141/4 118/142/4 117/143/4
f 117/144/1 118/145/1 133/146/1 124/147/1 129/148/1 114/149/1 113/150/1
f 115/151/6 119/152/6 117/153/6 113/154/6
f 141/155/11 130/125/11 114/124/11 129/156/11
f 140/157/12 134/158/12 124/159/12 133/160/12
f 139/161/12 135/162/12 125/163/12 136/164/12
f 138/165/11 126/127/11 121/126/11 137/166/11
f 135/162/13 138/165/13 137/166/13 125/163/13
f 122/167/13 131/168/13 138/165/13 135/162/13
f 131/168/11 116/128/11 126/127/11 138/165/11
f 132/139/14 139/161/14 136/164/14 123/140/14
f 120/138/14 127/169/14 139/161/14 132/139/14
f 127/169/12 122/167/12 135/162/12 139/161/12
f 128/141/14 140/157/14 133/160/14 118/142/14
f 123/140/14 136/164/14 140/157/14 128/141/14
f 136/164/12 125/163/12 134/158/12 140/157/12
f 134/158/13 141/155/13 129/156/13 124/159/13
f 125/163/13 137/166/13 141/155/13 134/158/13
f 137/166/11 121/126/11 130/125/11 141/155/11
s 1
f 29/170/15 30/171/16 32/172/17 31/173/18
f 31/174/18 32/175/17 34/176/19 33/177/20
f 33/178/20 34/179/19 36/180/21 35/181/22
f 35/182/22 36/183/21 38/184/23 37/185/24
f 37/186/24 38/187/23 40/188/25 39/189/26
f 39/190/26 40/191/25 42/192/27 41/193/28
f 41/194/28 42/195/27 44/196/29 43/197/30
f 43/198/30 44/199/29 46/200/31 45/201/32
f 45/202/32 46/203/31 48/204/33 47/205/34
f 47/206/34 48/207/33 50/208/35 49/209/36
f 49/210/36 50/211/35 52/212/37 51/213/38
f 51/214/38 52/215/37 54/216/39 53/217/40
f 53/218/40 54/219/39 56/220/41 55/221/42
f 55/222/42 56/223/41 58/224/43 57/225/44
f 57/226/44 58/227/43 60/228/45 59/229/46
f 59/230/46 60/231/45 62/232/47 61/233/48
f 61/234/48 62/235/47 64/236/49 63/237/50
f 63/238/50 64/239/49 66/240/51 65/241/52
f 65/242/52 66/243/51 68/244/53 67/245/54
f 67/246/54 68/247/53 70/248/55 69/249/56
f 69/250/56 70/251/55 72/252/57 71/253/58
f 71/254/58 72/255/57 74/256/59 73/257/60
f 73/258/60 74/259/59 76/260/61 75/261/62
f 75/262/62 76/263/61 78/264/63 77/265/64
f 77/266/64 78/267/63 80/268/65 79/269/66
f 79/270/66 80/271/65 82/272/67 81/273/68
f 81/274/68 82/275/67 84/276/69 83/277/70
f 83/278/70 84/279/69 86/280/71 85/281/72
f 85/282/72 86/283/71 88/284/73 87/285/74
f 87/286/74 88/287/73 90/288/75 89/289/76
f 32/290/17 30/291/16 92/292/77 90/293/75 88/294/73 86/295/71 84/296/69 82/297/67 80/298/65 78/299/63 76/300/61 74/301/59 72/302/57 70/303/55 68/304/53 66/305/51 64/306/49 62/307/47 60/308/45 58/309/43 56/310/41 54/311/39 52/312/37 50/313/35 48/314/33 46/315/31 44/316/29 42/317/27 40/318/25 38/319/23 36/320/21 34/321/19
f 89/322/76 90/323/75 92/324/77 91/325/78
f 91/326/78 92/327/77 30/328/16 29/329/15
f 29/330/15 31/331/18 33/332/20 35/333/22 37/334/24 39/335/26 41/336/28 43/337/30 45/338/32 47/339/34 49/340/36 51/341/38 53/342/40 55/343/42 57/344/44 59/345/46 61/346/48 63/347/50 65/348/52 67/349/54 69/350/56 71/351/58 73/352/60 75/353/62 77/354/64 79/355/66 81/356/68 83/357/70 85/358/72 87/359/74 89/360/76 91/361/78
