# Blender v2.79 (sub 0) OBJ File: 'furnitures.blend'
# www.blender.org
mtllib table.mtl
o Cube
v -3.794890 0.008023 1.118450
v -3.794890 3.229417 1.118450
v -3.794890 0.008023 -1.179795
v -3.794890 3.229417 -1.179795
v 3.794890 0.008023 1.118450
v 3.794890 3.229417 1.118450
v 3.794890 0.008023 -1.179795
v 3.794890 3.229417 -1.179795
v -4.235080 3.229417 1.693011
v -4.235080 3.229417 -1.754356
v 4.235080 3.229417 -1.754356
v 4.235080 3.229417 1.693011
v -4.235080 3.674026 1.693011
v -4.235080 3.674026 -1.754356
v 4.235080 3.674026 -1.754356
v 4.235080 3.674026 1.693011
vt 0.410689 0.280105
vt 0.410689 0.142427
vt 0.683320 0.142427
vt 0.683320 0.280105
vt 0.683594 0.280154
vt 0.410689 0.280154
vt 0.410689 0.141938
vt 0.683594 0.141938
vt 0.955951 0.142427
vt 0.955951 0.280105
vt 0.683320 0.280105
vt 0.683320 0.142427
vt 0.683594 0.141938
vt 0.956498 0.141938
vt 0.956498 0.280154
vt 0.683594 0.280154
vt 0.683021 0.027209
vt 0.949792 0.027209
vt 0.949792 0.129041
vt 0.683021 0.129041
vt 0.292255 0.260424
vt 0.090504 0.260424
vt 0.040066 0.221782
vt 0.342692 0.221782
vt 0.892199 0.955281
vt 0.635949 0.955281
vt 0.635949 0.325678
vt 0.892199 0.325678
vt 0.090504 0.926691
vt 0.040066 0.965333
vt 0.525494 0.953701
vt 0.525469 0.355950
vt 0.362998 0.355950
vt 0.363011 0.953701
vt 0.525519 0.355950
vt 0.362998 0.355950
vt 0.362998 0.355950
vt 0.363011 0.953701
vt 0.363011 0.953701
vt 0.362998 0.355950
vt 0.525469 0.355950
vt 0.525494 0.953701
vt 0.292255 0.926691
vt 0.342692 0.965333
vn -0.5773 -0.5773 0.5773
vn -0.3015 -0.9045 0.3015
vn -0.3015 -0.9045 -0.3015
vn -0.5773 -0.5773 -0.5773
vn 0.3015 -0.9045 -0.3015
vn 0.5773 -0.5773 -0.5773
vn 0.3015 -0.9045 0.3015
vn 0.5773 -0.5773 0.5773
vn -0.5773 0.5773 -0.5773
vn -0.5773 0.5773 0.5773
vn 0.5773 0.5773 0.5773
vn 0.5773 0.5773 -0.5773
usemtl Material
s 1
f 1/1/1 2/2/2 4/3/3 3/4/4
f 3/5/4 4/6/3 8/7/5 7/8/6
f 7/9/6 8/10/5 6/11/7 5/12/8
f 5/13/8 6/14/7 2/15/2 1/16/1
f 3/17/4 7/18/6 5/19/8 1/20/1
f 6/21/7 8/22/5 11/23/6 12/24/8
f 14/25/9 13/26/10 16/27/11 15/28/12
f 8/22/5 4/29/3 10/30/4 11/23/6
f 11/31/6 10/32/4 14/33/9 15/34/12
f 12/35/8 11/31/6 15/34/12 16/36/11
f 10/37/4 9/38/1 13/39/10 14/33/9
f 9/38/1 12/40/8 16/41/11 13/42/10
f 4/29/3 2/43/2 9/44/1 10/30/4
f 2/43/2 6/21/7 12/24/8 9/44/1
